<?xml version="1.0" encoding="iso-8859-1"?>
<!-- Generator: Adobe Illustrator 19.0.0, SVG Export Plug-In . SVG Version: 6.00 Build 0)  -->
<svg version="1.1" id="Capa_1" xmlns="http://www.w3.org/2000/svg" xmlns:xlink="http://www.w3.org/1999/xlink" x="0px" y="0px"
	 viewBox="0 0 512 512" style="enable-background:new 0 0 512 512;" xml:space="preserve">
<g>
	<g>
		<g>
			<path d="M512,224v-96h-54.08l25.6-128H354.88l-25.6,128H217.92l25.6-128H114.88l-25.6,128H0v96h70.08l-12.8,64H0v96h38.08
				l-25.6,128h128.64l25.6-128h111.36l-25.6,128h128.64l25.6-128H512v-96h-86.08l12.8-64H512z M381.12,32h63.36l-19.2,96h-63.36
				L381.12,32z M115.52,160l6.4-32l19.2-96h63.36l-25.6,128l-12.8,64l-12.8,64H89.92L115.52,160z M310.064,224l-12.8,64H185.936
				l12.8-64H310.064z M32,192v-32h50.88l-6.4,32H32z M114.88,480H51.52l19.2-96h63.36L114.88,480z M284.48,352H32v-32h258.88
				L284.48,352z M354.88,480h-63.36l51.2-256h63.36L354.88,480z M480,320v32h-66.88l6.4-32H480z M205.12,192l6.4-32H480v32H205.12z"
				/>
			<rect width="32" height="32"/>
			<rect x="480" y="480" width="32" height="32"/>
		</g>
	</g>
</g>
<g>
</g>
<g>
</g>
<g>
</g>
<g>
</g>
<g>
</g>
<g>
</g>
<g>
</g>
<g>
</g>
<g>
</g>
<g>
</g>
<g>
</g>
<g>
</g>
<g>
</g>
<g>
</g>
<g>
</g>
</svg>
